<mxfile host="65bd71144e" modified="2021-03-03T18:53:56.930Z" agent="5.0 (Windows NT 10.0; Win64; x64) AppleWebKit/537.36 (KHTML, like Gecko) Code/1.53.2 Chrome/87.0.4280.141 Electron/11.2.1 Safari/537.36" etag="ixawEN5ipRVWTldF6NZ2" version="14.2.4" type="embed">
    <diagram id="C5RBs43oDa-KdzZeNtuy" name="User Flow">
        <mxGraphModel dx="2599" dy="455" grid="1" gridSize="1" guides="1" tooltips="1" connect="1" arrows="1" fold="1" page="1" pageScale="1" pageWidth="827" pageHeight="1169" math="0" shadow="0">
            <root>
                <mxCell id="WIyWlLk6GJQsqaUBKTNV-0"/>
                <mxCell id="WIyWlLk6GJQsqaUBKTNV-1" parent="WIyWlLk6GJQsqaUBKTNV-0"/>
                <mxCell id="eyHZj45Z1vchn3XjPUR3-0" value="LoGrow Farm User Flow Diagram" style="text;html=1;strokeColor=none;fillColor=none;align=center;verticalAlign=middle;whiteSpace=wrap;rounded=0;fontSize=23;fontStyle=1" parent="WIyWlLk6GJQsqaUBKTNV-1" vertex="1">
                    <mxGeometry x="135" y="110" width="430" height="20" as="geometry"/>
                </mxCell>
                <mxCell id="sWB0CcJkNlTnmJcERW5W-7" style="edgeStyle=orthogonalEdgeStyle;rounded=0;orthogonalLoop=1;jettySize=auto;html=1;entryX=0.5;entryY=0;entryDx=0;entryDy=0;" parent="WIyWlLk6GJQsqaUBKTNV-1" source="eyHZj45Z1vchn3XjPUR3-6" target="sWB0CcJkNlTnmJcERW5W-5" edge="1">
                    <mxGeometry relative="1" as="geometry"/>
                </mxCell>
                <mxCell id="eyHZj45Z1vchn3XjPUR3-6" value="Sign In" style="rounded=1;whiteSpace=wrap;html=1;fontSize=12;" parent="WIyWlLk6GJQsqaUBKTNV-1" vertex="1">
                    <mxGeometry x="190" y="380" width="120" height="60" as="geometry"/>
                </mxCell>
                <mxCell id="eyHZj45Z1vchn3XjPUR3-11" style="edgeStyle=orthogonalEdgeStyle;rounded=0;orthogonalLoop=1;jettySize=auto;html=1;fontSize=23;" parent="WIyWlLk6GJQsqaUBKTNV-1" source="eyHZj45Z1vchn3XjPUR3-7" edge="1">
                    <mxGeometry relative="1" as="geometry">
                        <mxPoint x="236" y="378" as="targetPoint"/>
                    </mxGeometry>
                </mxCell>
                <mxCell id="eyHZj45Z1vchn3XjPUR3-14" value="&lt;font style=&quot;font-size: 12px&quot;&gt;yes&lt;/font&gt;" style="edgeLabel;html=1;align=center;verticalAlign=middle;resizable=0;points=[];fontSize=23;" parent="eyHZj45Z1vchn3XjPUR3-11" vertex="1" connectable="0">
                    <mxGeometry x="-0.0123" y="4" relative="1" as="geometry">
                        <mxPoint y="-6" as="offset"/>
                    </mxGeometry>
                </mxCell>
                <mxCell id="eyHZj45Z1vchn3XjPUR3-12" style="edgeStyle=orthogonalEdgeStyle;rounded=0;orthogonalLoop=1;jettySize=auto;html=1;fontSize=12;" parent="WIyWlLk6GJQsqaUBKTNV-1" source="eyHZj45Z1vchn3XjPUR3-7" target="eyHZj45Z1vchn3XjPUR3-10" edge="1">
                    <mxGeometry relative="1" as="geometry"/>
                </mxCell>
                <mxCell id="eyHZj45Z1vchn3XjPUR3-15" value="no" style="edgeLabel;html=1;align=center;verticalAlign=middle;resizable=0;points=[];fontSize=12;" parent="eyHZj45Z1vchn3XjPUR3-12" vertex="1" connectable="0">
                    <mxGeometry x="-0.1917" y="-4" relative="1" as="geometry">
                        <mxPoint as="offset"/>
                    </mxGeometry>
                </mxCell>
                <mxCell id="eyHZj45Z1vchn3XjPUR3-7" value="Has signed up?" style="rhombus;whiteSpace=wrap;html=1;fontSize=12;" parent="WIyWlLk6GJQsqaUBKTNV-1" vertex="1">
                    <mxGeometry x="310" y="250" width="80" height="80" as="geometry"/>
                </mxCell>
                <mxCell id="eyHZj45Z1vchn3XjPUR3-24" style="edgeStyle=orthogonalEdgeStyle;rounded=0;orthogonalLoop=1;jettySize=auto;html=1;fontSize=12;" parent="WIyWlLk6GJQsqaUBKTNV-1" source="eyHZj45Z1vchn3XjPUR3-10" target="eyHZj45Z1vchn3XjPUR3-17" edge="1">
                    <mxGeometry relative="1" as="geometry"/>
                </mxCell>
                <mxCell id="eyHZj45Z1vchn3XjPUR3-10" value="Sign Up" style="rounded=1;whiteSpace=wrap;html=1;fontSize=12;" parent="WIyWlLk6GJQsqaUBKTNV-1" vertex="1">
                    <mxGeometry x="400" y="380" width="120" height="60" as="geometry"/>
                </mxCell>
                <mxCell id="eyHZj45Z1vchn3XjPUR3-25" style="edgeStyle=orthogonalEdgeStyle;rounded=0;orthogonalLoop=1;jettySize=auto;html=1;entryX=0.5;entryY=0;entryDx=0;entryDy=0;fontSize=12;" parent="WIyWlLk6GJQsqaUBKTNV-1" source="eyHZj45Z1vchn3XjPUR3-17" target="eyHZj45Z1vchn3XjPUR3-18" edge="1">
                    <mxGeometry relative="1" as="geometry"/>
                </mxCell>
                <mxCell id="eyHZj45Z1vchn3XjPUR3-17" value="Select User Type (Farmer or Customer)" style="rounded=1;whiteSpace=wrap;html=1;fontSize=12;" parent="WIyWlLk6GJQsqaUBKTNV-1" vertex="1">
                    <mxGeometry x="400" y="490" width="120" height="60" as="geometry"/>
                </mxCell>
                <mxCell id="eyHZj45Z1vchn3XjPUR3-26" style="edgeStyle=orthogonalEdgeStyle;rounded=0;orthogonalLoop=1;jettySize=auto;html=1;entryX=0.5;entryY=0;entryDx=0;entryDy=0;fontSize=12;" parent="WIyWlLk6GJQsqaUBKTNV-1" source="eyHZj45Z1vchn3XjPUR3-18" target="eyHZj45Z1vchn3XjPUR3-19" edge="1">
                    <mxGeometry relative="1" as="geometry"/>
                </mxCell>
                <mxCell id="eyHZj45Z1vchn3XjPUR3-18" value="Fill in the Sign Up Form" style="rounded=1;whiteSpace=wrap;html=1;fontSize=12;" parent="WIyWlLk6GJQsqaUBKTNV-1" vertex="1">
                    <mxGeometry x="400" y="620" width="120" height="60" as="geometry"/>
                </mxCell>
                <mxCell id="eyHZj45Z1vchn3XjPUR3-27" style="edgeStyle=orthogonalEdgeStyle;rounded=0;orthogonalLoop=1;jettySize=auto;html=1;entryX=0.5;entryY=0;entryDx=0;entryDy=0;fontSize=12;" parent="WIyWlLk6GJQsqaUBKTNV-1" source="eyHZj45Z1vchn3XjPUR3-19" target="eyHZj45Z1vchn3XjPUR3-20" edge="1">
                    <mxGeometry relative="1" as="geometry"/>
                </mxCell>
                <mxCell id="eyHZj45Z1vchn3XjPUR3-19" value="Submit Sign Up" style="rounded=1;whiteSpace=wrap;html=1;fontSize=12;" parent="WIyWlLk6GJQsqaUBKTNV-1" vertex="1">
                    <mxGeometry x="400" y="730" width="120" height="60" as="geometry"/>
                </mxCell>
                <mxCell id="eyHZj45Z1vchn3XjPUR3-22" style="edgeStyle=orthogonalEdgeStyle;rounded=0;orthogonalLoop=1;jettySize=auto;html=1;entryX=1;entryY=0.5;entryDx=0;entryDy=0;fontSize=12;" parent="WIyWlLk6GJQsqaUBKTNV-1" source="eyHZj45Z1vchn3XjPUR3-20" target="eyHZj45Z1vchn3XjPUR3-18" edge="1">
                    <mxGeometry relative="1" as="geometry">
                        <Array as="points">
                            <mxPoint x="540" y="860"/>
                            <mxPoint x="540" y="650"/>
                        </Array>
                    </mxGeometry>
                </mxCell>
                <mxCell id="eyHZj45Z1vchn3XjPUR3-28" value="Invalid Form" style="edgeLabel;html=1;align=center;verticalAlign=middle;resizable=0;points=[];fontSize=12;" parent="eyHZj45Z1vchn3XjPUR3-22" vertex="1" connectable="0">
                    <mxGeometry x="0.0048" y="-2" relative="1" as="geometry">
                        <mxPoint x="35" y="-12" as="offset"/>
                    </mxGeometry>
                </mxCell>
                <mxCell id="eyHZj45Z1vchn3XjPUR3-31" style="edgeStyle=orthogonalEdgeStyle;rounded=0;orthogonalLoop=1;jettySize=auto;html=1;entryX=1;entryY=0.5;entryDx=0;entryDy=0;fontSize=23;" parent="WIyWlLk6GJQsqaUBKTNV-1" source="eyHZj45Z1vchn3XjPUR3-20" target="eyHZj45Z1vchn3XjPUR3-21" edge="1">
                    <mxGeometry relative="1" as="geometry"/>
                </mxCell>
                <mxCell id="eyHZj45Z1vchn3XjPUR3-20" value="Is Valid Form?" style="rhombus;whiteSpace=wrap;html=1;fontSize=12;" parent="WIyWlLk6GJQsqaUBKTNV-1" vertex="1">
                    <mxGeometry x="420" y="830" width="80" height="80" as="geometry"/>
                </mxCell>
                <mxCell id="eyHZj45Z1vchn3XjPUR3-34" style="edgeStyle=orthogonalEdgeStyle;rounded=0;orthogonalLoop=1;jettySize=auto;html=1;entryX=0.5;entryY=0;entryDx=0;entryDy=0;fontSize=21;" parent="WIyWlLk6GJQsqaUBKTNV-1" source="eyHZj45Z1vchn3XjPUR3-21" target="eyHZj45Z1vchn3XjPUR3-33" edge="1">
                    <mxGeometry relative="1" as="geometry"/>
                </mxCell>
                <mxCell id="eyHZj45Z1vchn3XjPUR3-21" value="Navigate to Community Board" style="rounded=1;whiteSpace=wrap;html=1;fontSize=12;" parent="WIyWlLk6GJQsqaUBKTNV-1" vertex="1">
                    <mxGeometry x="130" y="840" width="120" height="60" as="geometry"/>
                </mxCell>
                <mxCell id="eyHZj45Z1vchn3XjPUR3-29" value="Valid Form" style="text;html=1;align=center;verticalAlign=middle;resizable=0;points=[];autosize=1;fontSize=12;" parent="WIyWlLk6GJQsqaUBKTNV-1" vertex="1">
                    <mxGeometry x="311" y="844" width="70" height="20" as="geometry"/>
                </mxCell>
                <mxCell id="sWB0CcJkNlTnmJcERW5W-2" style="edgeStyle=orthogonalEdgeStyle;rounded=0;orthogonalLoop=1;jettySize=auto;html=1;entryX=0.389;entryY=0.04;entryDx=0;entryDy=0;entryPerimeter=0;" parent="WIyWlLk6GJQsqaUBKTNV-1" source="eyHZj45Z1vchn3XjPUR3-33" target="sWB0CcJkNlTnmJcERW5W-0" edge="1">
                    <mxGeometry relative="1" as="geometry"/>
                </mxCell>
                <mxCell id="sWB0CcJkNlTnmJcERW5W-4" value="Customer User" style="edgeLabel;html=1;align=center;verticalAlign=middle;resizable=0;points=[];" parent="sWB0CcJkNlTnmJcERW5W-2" vertex="1" connectable="0">
                    <mxGeometry x="0.0165" relative="1" as="geometry">
                        <mxPoint as="offset"/>
                    </mxGeometry>
                </mxCell>
                <mxCell id="sWB0CcJkNlTnmJcERW5W-3" style="edgeStyle=orthogonalEdgeStyle;rounded=0;orthogonalLoop=1;jettySize=auto;html=1;exitX=1;exitY=0.5;exitDx=0;exitDy=0;entryX=0.621;entryY=0;entryDx=0;entryDy=0;entryPerimeter=0;" parent="WIyWlLk6GJQsqaUBKTNV-1" source="eyHZj45Z1vchn3XjPUR3-33" target="sWB0CcJkNlTnmJcERW5W-1" edge="1">
                    <mxGeometry relative="1" as="geometry"/>
                </mxCell>
                <mxCell id="sWB0CcJkNlTnmJcERW5W-20" value="Farmer User" style="edgeLabel;html=1;align=center;verticalAlign=middle;resizable=0;points=[];" parent="sWB0CcJkNlTnmJcERW5W-3" vertex="1" connectable="0">
                    <mxGeometry x="-0.136" y="2" relative="1" as="geometry">
                        <mxPoint as="offset"/>
                    </mxGeometry>
                </mxCell>
                <mxCell id="eyHZj45Z1vchn3XjPUR3-33" value="Customer or Farmer User?" style="rhombus;whiteSpace=wrap;html=1;fontSize=12;" parent="WIyWlLk6GJQsqaUBKTNV-1" vertex="1">
                    <mxGeometry x="150" y="960" width="80" height="80" as="geometry"/>
                </mxCell>
                <mxCell id="eyHZj45Z1vchn3XjPUR3-37" style="edgeStyle=orthogonalEdgeStyle;rounded=0;orthogonalLoop=1;jettySize=auto;html=1;entryX=0.5;entryY=0;entryDx=0;entryDy=0;fontSize=21;" parent="WIyWlLk6GJQsqaUBKTNV-1" source="eyHZj45Z1vchn3XjPUR3-35" target="eyHZj45Z1vchn3XjPUR3-7" edge="1">
                    <mxGeometry relative="1" as="geometry"/>
                </mxCell>
                <mxCell id="eyHZj45Z1vchn3XjPUR3-35" value="" style="ellipse;fillColor=#000000;strokeColor=none;fontSize=21;" parent="WIyWlLk6GJQsqaUBKTNV-1" vertex="1">
                    <mxGeometry x="335" y="170" width="30" height="30" as="geometry"/>
                </mxCell>
                <mxCell id="sWB0CcJkNlTnmJcERW5W-64" style="edgeStyle=orthogonalEdgeStyle;rounded=0;orthogonalLoop=1;jettySize=auto;html=1;strokeWidth=1;fontSize=12;" parent="WIyWlLk6GJQsqaUBKTNV-1" source="sWB0CcJkNlTnmJcERW5W-0" target="sWB0CcJkNlTnmJcERW5W-39" edge="1">
                    <mxGeometry relative="1" as="geometry"/>
                </mxCell>
                <mxCell id="sWB0CcJkNlTnmJcERW5W-65" style="edgeStyle=orthogonalEdgeStyle;rounded=0;orthogonalLoop=1;jettySize=auto;html=1;strokeWidth=1;fontSize=12;" parent="WIyWlLk6GJQsqaUBKTNV-1" source="sWB0CcJkNlTnmJcERW5W-0" target="sWB0CcJkNlTnmJcERW5W-40" edge="1">
                    <mxGeometry relative="1" as="geometry"/>
                </mxCell>
                <mxCell id="sWB0CcJkNlTnmJcERW5W-66" style="edgeStyle=orthogonalEdgeStyle;rounded=0;orthogonalLoop=1;jettySize=auto;html=1;strokeWidth=1;fontSize=12;" parent="WIyWlLk6GJQsqaUBKTNV-1" source="sWB0CcJkNlTnmJcERW5W-0" target="sWB0CcJkNlTnmJcERW5W-51" edge="1">
                    <mxGeometry relative="1" as="geometry"/>
                </mxCell>
                <mxCell id="sWB0CcJkNlTnmJcERW5W-84" style="edgeStyle=orthogonalEdgeStyle;rounded=0;orthogonalLoop=1;jettySize=auto;html=1;exitX=0;exitY=0.5;exitDx=0;exitDy=0;strokeWidth=1;fontSize=12;" parent="WIyWlLk6GJQsqaUBKTNV-1" source="sWB0CcJkNlTnmJcERW5W-0" target="sWB0CcJkNlTnmJcERW5W-83" edge="1">
                    <mxGeometry relative="1" as="geometry"/>
                </mxCell>
                <mxCell id="sWB0CcJkNlTnmJcERW5W-0" value="" style="rounded=0;whiteSpace=wrap;html=1;" parent="WIyWlLk6GJQsqaUBKTNV-1" vertex="1">
                    <mxGeometry x="-460" y="1120" width="520" height="10" as="geometry"/>
                </mxCell>
                <mxCell id="sWB0CcJkNlTnmJcERW5W-29" value="" style="edgeStyle=orthogonalEdgeStyle;rounded=0;orthogonalLoop=1;jettySize=auto;html=1;" parent="WIyWlLk6GJQsqaUBKTNV-1" source="sWB0CcJkNlTnmJcERW5W-1" target="sWB0CcJkNlTnmJcERW5W-22" edge="1">
                    <mxGeometry relative="1" as="geometry"/>
                </mxCell>
                <mxCell id="sWB0CcJkNlTnmJcERW5W-30" style="edgeStyle=orthogonalEdgeStyle;rounded=0;orthogonalLoop=1;jettySize=auto;html=1;entryX=0.5;entryY=0;entryDx=0;entryDy=0;" parent="WIyWlLk6GJQsqaUBKTNV-1" source="sWB0CcJkNlTnmJcERW5W-1" target="sWB0CcJkNlTnmJcERW5W-21" edge="1">
                    <mxGeometry relative="1" as="geometry"/>
                </mxCell>
                <mxCell id="sWB0CcJkNlTnmJcERW5W-31" style="edgeStyle=orthogonalEdgeStyle;rounded=0;orthogonalLoop=1;jettySize=auto;html=1;" parent="WIyWlLk6GJQsqaUBKTNV-1" source="sWB0CcJkNlTnmJcERW5W-1" target="sWB0CcJkNlTnmJcERW5W-23" edge="1">
                    <mxGeometry relative="1" as="geometry"/>
                </mxCell>
                <mxCell id="sWB0CcJkNlTnmJcERW5W-32" style="edgeStyle=orthogonalEdgeStyle;rounded=0;orthogonalLoop=1;jettySize=auto;html=1;" parent="WIyWlLk6GJQsqaUBKTNV-1" source="sWB0CcJkNlTnmJcERW5W-1" target="sWB0CcJkNlTnmJcERW5W-24" edge="1">
                    <mxGeometry relative="1" as="geometry"/>
                </mxCell>
                <mxCell id="sWB0CcJkNlTnmJcERW5W-1" value="" style="rounded=0;whiteSpace=wrap;html=1;" parent="WIyWlLk6GJQsqaUBKTNV-1" vertex="1">
                    <mxGeometry x="689" y="1144.86" width="520" height="10" as="geometry"/>
                </mxCell>
                <mxCell id="sWB0CcJkNlTnmJcERW5W-8" style="edgeStyle=orthogonalEdgeStyle;rounded=0;orthogonalLoop=1;jettySize=auto;html=1;entryX=0.5;entryY=0;entryDx=0;entryDy=0;" parent="WIyWlLk6GJQsqaUBKTNV-1" source="sWB0CcJkNlTnmJcERW5W-5" target="eyHZj45Z1vchn3XjPUR3-21" edge="1">
                    <mxGeometry relative="1" as="geometry"/>
                </mxCell>
                <mxCell id="sWB0CcJkNlTnmJcERW5W-9" value="Yes" style="edgeLabel;html=1;align=center;verticalAlign=middle;resizable=0;points=[];" parent="sWB0CcJkNlTnmJcERW5W-8" vertex="1" connectable="0">
                    <mxGeometry x="-0.3379" y="-2" relative="1" as="geometry">
                        <mxPoint as="offset"/>
                    </mxGeometry>
                </mxCell>
                <mxCell id="sWB0CcJkNlTnmJcERW5W-10" style="edgeStyle=orthogonalEdgeStyle;rounded=0;orthogonalLoop=1;jettySize=auto;html=1;entryX=1;entryY=0.5;entryDx=0;entryDy=0;" parent="WIyWlLk6GJQsqaUBKTNV-1" source="sWB0CcJkNlTnmJcERW5W-5" target="sWB0CcJkNlTnmJcERW5W-6" edge="1">
                    <mxGeometry relative="1" as="geometry"/>
                </mxCell>
                <mxCell id="sWB0CcJkNlTnmJcERW5W-17" value="No" style="edgeLabel;html=1;align=center;verticalAlign=middle;resizable=0;points=[];" parent="sWB0CcJkNlTnmJcERW5W-10" vertex="1" connectable="0">
                    <mxGeometry x="-0.232" y="2" relative="1" as="geometry">
                        <mxPoint as="offset"/>
                    </mxGeometry>
                </mxCell>
                <mxCell id="sWB0CcJkNlTnmJcERW5W-5" value="Is Credential Valid?" style="rhombus;whiteSpace=wrap;html=1;" parent="WIyWlLk6GJQsqaUBKTNV-1" vertex="1">
                    <mxGeometry x="210" y="530" width="80" height="80" as="geometry"/>
                </mxCell>
                <mxCell id="sWB0CcJkNlTnmJcERW5W-12" style="edgeStyle=orthogonalEdgeStyle;rounded=0;orthogonalLoop=1;jettySize=auto;html=1;entryX=0;entryY=0.5;entryDx=0;entryDy=0;exitX=0.5;exitY=0;exitDx=0;exitDy=0;" parent="WIyWlLk6GJQsqaUBKTNV-1" source="sWB0CcJkNlTnmJcERW5W-6" target="eyHZj45Z1vchn3XjPUR3-6" edge="1">
                    <mxGeometry relative="1" as="geometry">
                        <Array as="points">
                            <mxPoint x="70" y="530"/>
                            <mxPoint x="70" y="410"/>
                        </Array>
                    </mxGeometry>
                </mxCell>
                <mxCell id="sWB0CcJkNlTnmJcERW5W-18" value="Yes" style="edgeLabel;html=1;align=center;verticalAlign=middle;resizable=0;points=[];" parent="sWB0CcJkNlTnmJcERW5W-12" vertex="1" connectable="0">
                    <mxGeometry x="-0.6317" y="-1" relative="1" as="geometry">
                        <mxPoint as="offset"/>
                    </mxGeometry>
                </mxCell>
                <mxCell id="sWB0CcJkNlTnmJcERW5W-14" style="edgeStyle=orthogonalEdgeStyle;rounded=0;orthogonalLoop=1;jettySize=auto;html=1;" parent="WIyWlLk6GJQsqaUBKTNV-1" source="sWB0CcJkNlTnmJcERW5W-6" target="sWB0CcJkNlTnmJcERW5W-13" edge="1">
                    <mxGeometry relative="1" as="geometry">
                        <Array as="points">
                            <mxPoint x="10" y="570"/>
                            <mxPoint x="10" y="570"/>
                        </Array>
                    </mxGeometry>
                </mxCell>
                <mxCell id="sWB0CcJkNlTnmJcERW5W-6" value="has tried less then 3 times?" style="rhombus;whiteSpace=wrap;html=1;" parent="WIyWlLk6GJQsqaUBKTNV-1" vertex="1">
                    <mxGeometry x="30" y="530" width="80" height="80" as="geometry"/>
                </mxCell>
                <mxCell id="sWB0CcJkNlTnmJcERW5W-16" style="edgeStyle=orthogonalEdgeStyle;rounded=0;orthogonalLoop=1;jettySize=auto;html=1;entryX=0;entryY=0.5;entryDx=0;entryDy=0;" parent="WIyWlLk6GJQsqaUBKTNV-1" source="sWB0CcJkNlTnmJcERW5W-13" target="eyHZj45Z1vchn3XjPUR3-6" edge="1">
                    <mxGeometry relative="1" as="geometry">
                        <Array as="points">
                            <mxPoint x="-80" y="410"/>
                        </Array>
                    </mxGeometry>
                </mxCell>
                <mxCell id="sWB0CcJkNlTnmJcERW5W-13" value="User Account freezes for 1 hr" style="rounded=1;whiteSpace=wrap;html=1;" parent="WIyWlLk6GJQsqaUBKTNV-1" vertex="1">
                    <mxGeometry x="-160" y="540" width="120" height="60" as="geometry"/>
                </mxCell>
                <mxCell id="sWB0CcJkNlTnmJcERW5W-19" value="No" style="text;html=1;align=center;verticalAlign=middle;resizable=0;points=[];autosize=1;" parent="WIyWlLk6GJQsqaUBKTNV-1" vertex="1">
                    <mxGeometry x="-8" y="551" width="26" height="19" as="geometry"/>
                </mxCell>
                <mxCell id="sWB0CcJkNlTnmJcERW5W-27" style="edgeStyle=orthogonalEdgeStyle;rounded=0;orthogonalLoop=1;jettySize=auto;html=1;entryX=0.5;entryY=0;entryDx=0;entryDy=0;" parent="WIyWlLk6GJQsqaUBKTNV-1" source="sWB0CcJkNlTnmJcERW5W-21" target="sWB0CcJkNlTnmJcERW5W-25" edge="1">
                    <mxGeometry relative="1" as="geometry"/>
                </mxCell>
                <mxCell id="sWB0CcJkNlTnmJcERW5W-21" value="Add Update Post" style="rounded=1;whiteSpace=wrap;html=1;" parent="WIyWlLk6GJQsqaUBKTNV-1" vertex="1">
                    <mxGeometry x="699" y="1244.86" width="120" height="60" as="geometry"/>
                </mxCell>
                <mxCell id="sWB0CcJkNlTnmJcERW5W-128" style="edgeStyle=orthogonalEdgeStyle;rounded=0;orthogonalLoop=1;jettySize=auto;html=1;strokeWidth=1;fontSize=12;" parent="WIyWlLk6GJQsqaUBKTNV-1" source="sWB0CcJkNlTnmJcERW5W-22" target="sWB0CcJkNlTnmJcERW5W-34" edge="1">
                    <mxGeometry relative="1" as="geometry">
                        <Array as="points">
                            <mxPoint x="919" y="1542"/>
                            <mxPoint x="747" y="1542"/>
                        </Array>
                    </mxGeometry>
                </mxCell>
                <mxCell id="sWB0CcJkNlTnmJcERW5W-22" value="Navigate to farmer profile page" style="rounded=1;whiteSpace=wrap;html=1;" parent="WIyWlLk6GJQsqaUBKTNV-1" vertex="1">
                    <mxGeometry x="859" y="1244.86" width="120" height="60" as="geometry"/>
                </mxCell>
                <mxCell id="sWB0CcJkNlTnmJcERW5W-114" style="edgeStyle=orthogonalEdgeStyle;rounded=0;orthogonalLoop=1;jettySize=auto;html=1;strokeWidth=1;fontSize=12;" parent="WIyWlLk6GJQsqaUBKTNV-1" source="sWB0CcJkNlTnmJcERW5W-23" target="sWB0CcJkNlTnmJcERW5W-111" edge="1">
                    <mxGeometry relative="1" as="geometry"/>
                </mxCell>
                <mxCell id="sWB0CcJkNlTnmJcERW5W-23" value="Navigate to direct message contact list page" style="rounded=1;whiteSpace=wrap;html=1;" parent="WIyWlLk6GJQsqaUBKTNV-1" vertex="1">
                    <mxGeometry x="1019" y="1244.86" width="120" height="60" as="geometry"/>
                </mxCell>
                <mxCell id="sWB0CcJkNlTnmJcERW5W-58" style="edgeStyle=orthogonalEdgeStyle;rounded=0;orthogonalLoop=1;jettySize=auto;html=1;strokeWidth=1;fontSize=12;" parent="WIyWlLk6GJQsqaUBKTNV-1" source="sWB0CcJkNlTnmJcERW5W-24" target="sWB0CcJkNlTnmJcERW5W-55" edge="1">
                    <mxGeometry relative="1" as="geometry"/>
                </mxCell>
                <mxCell id="sWB0CcJkNlTnmJcERW5W-59" style="edgeStyle=orthogonalEdgeStyle;rounded=0;orthogonalLoop=1;jettySize=auto;html=1;strokeWidth=1;fontSize=12;" parent="WIyWlLk6GJQsqaUBKTNV-1" source="sWB0CcJkNlTnmJcERW5W-24" target="sWB0CcJkNlTnmJcERW5W-56" edge="1">
                    <mxGeometry relative="1" as="geometry"/>
                </mxCell>
                <mxCell id="sWB0CcJkNlTnmJcERW5W-60" style="edgeStyle=orthogonalEdgeStyle;rounded=0;orthogonalLoop=1;jettySize=auto;html=1;strokeWidth=1;fontSize=12;" parent="WIyWlLk6GJQsqaUBKTNV-1" source="sWB0CcJkNlTnmJcERW5W-24" target="sWB0CcJkNlTnmJcERW5W-57" edge="1">
                    <mxGeometry relative="1" as="geometry"/>
                </mxCell>
                <mxCell id="sWB0CcJkNlTnmJcERW5W-24" value="Toggle Menu List" style="rounded=1;whiteSpace=wrap;html=1;" parent="WIyWlLk6GJQsqaUBKTNV-1" vertex="1">
                    <mxGeometry x="1179" y="1244.86" width="120" height="60" as="geometry"/>
                </mxCell>
                <mxCell id="sWB0CcJkNlTnmJcERW5W-28" style="edgeStyle=orthogonalEdgeStyle;rounded=0;orthogonalLoop=1;jettySize=auto;html=1;entryX=0.5;entryY=0;entryDx=0;entryDy=0;" parent="WIyWlLk6GJQsqaUBKTNV-1" source="sWB0CcJkNlTnmJcERW5W-25" target="sWB0CcJkNlTnmJcERW5W-26" edge="1">
                    <mxGeometry relative="1" as="geometry"/>
                </mxCell>
                <mxCell id="sWB0CcJkNlTnmJcERW5W-25" value="Add image and content to the post" style="rounded=1;whiteSpace=wrap;html=1;" parent="WIyWlLk6GJQsqaUBKTNV-1" vertex="1">
                    <mxGeometry x="699" y="1344.86" width="120" height="60" as="geometry"/>
                </mxCell>
                <mxCell id="sWB0CcJkNlTnmJcERW5W-33" style="edgeStyle=orthogonalEdgeStyle;rounded=0;orthogonalLoop=1;jettySize=auto;html=1;entryX=0.128;entryY=0.12;entryDx=0;entryDy=0;entryPerimeter=0;" parent="WIyWlLk6GJQsqaUBKTNV-1" source="sWB0CcJkNlTnmJcERW5W-26" target="sWB0CcJkNlTnmJcERW5W-1" edge="1">
                    <mxGeometry relative="1" as="geometry">
                        <Array as="points">
                            <mxPoint x="669" y="1474.86"/>
                            <mxPoint x="669" y="1124.86"/>
                            <mxPoint x="756" y="1124.86"/>
                        </Array>
                    </mxGeometry>
                </mxCell>
                <mxCell id="sWB0CcJkNlTnmJcERW5W-26" value="Send" style="rounded=1;whiteSpace=wrap;html=1;" parent="WIyWlLk6GJQsqaUBKTNV-1" vertex="1">
                    <mxGeometry x="699" y="1444.86" width="120" height="60" as="geometry"/>
                </mxCell>
                <mxCell id="MtGOlrsBtDFDVX6YpHAY-5" style="edgeStyle=orthogonalEdgeStyle;rounded=0;orthogonalLoop=1;jettySize=auto;html=1;exitX=0.5;exitY=1;exitDx=0;exitDy=0;entryX=0.5;entryY=0;entryDx=0;entryDy=0;" parent="WIyWlLk6GJQsqaUBKTNV-1" source="sWB0CcJkNlTnmJcERW5W-34" target="MtGOlrsBtDFDVX6YpHAY-3" edge="1">
                    <mxGeometry relative="1" as="geometry"/>
                </mxCell>
                <mxCell id="MtGOlrsBtDFDVX6YpHAY-6" style="edgeStyle=orthogonalEdgeStyle;rounded=0;orthogonalLoop=1;jettySize=auto;html=1;" parent="WIyWlLk6GJQsqaUBKTNV-1" source="sWB0CcJkNlTnmJcERW5W-34" target="MtGOlrsBtDFDVX6YpHAY-0" edge="1">
                    <mxGeometry relative="1" as="geometry"/>
                </mxCell>
                <mxCell id="MtGOlrsBtDFDVX6YpHAY-7" style="edgeStyle=orthogonalEdgeStyle;rounded=0;orthogonalLoop=1;jettySize=auto;html=1;" parent="WIyWlLk6GJQsqaUBKTNV-1" source="sWB0CcJkNlTnmJcERW5W-34" target="MtGOlrsBtDFDVX6YpHAY-4" edge="1">
                    <mxGeometry relative="1" as="geometry"/>
                </mxCell>
                <mxCell id="sWB0CcJkNlTnmJcERW5W-34" value="" style="rounded=0;whiteSpace=wrap;html=1;" parent="WIyWlLk6GJQsqaUBKTNV-1" vertex="1">
                    <mxGeometry x="487" y="1607" width="520" height="10" as="geometry"/>
                </mxCell>
                <mxCell id="sWB0CcJkNlTnmJcERW5W-117" style="edgeStyle=orthogonalEdgeStyle;rounded=0;orthogonalLoop=1;jettySize=auto;html=1;entryX=0.5;entryY=0;entryDx=0;entryDy=0;strokeWidth=1;fontSize=12;" parent="WIyWlLk6GJQsqaUBKTNV-1" source="sWB0CcJkNlTnmJcERW5W-35" target="sWB0CcJkNlTnmJcERW5W-112" edge="1">
                    <mxGeometry relative="1" as="geometry"/>
                </mxCell>
                <mxCell id="sWB0CcJkNlTnmJcERW5W-120" style="edgeStyle=orthogonalEdgeStyle;rounded=0;orthogonalLoop=1;jettySize=auto;html=1;entryX=0.5;entryY=0;entryDx=0;entryDy=0;strokeWidth=1;fontSize=12;" parent="WIyWlLk6GJQsqaUBKTNV-1" source="sWB0CcJkNlTnmJcERW5W-35" target="sWB0CcJkNlTnmJcERW5W-113" edge="1">
                    <mxGeometry relative="1" as="geometry"/>
                </mxCell>
                <mxCell id="sWB0CcJkNlTnmJcERW5W-121" style="edgeStyle=orthogonalEdgeStyle;rounded=0;orthogonalLoop=1;jettySize=auto;html=1;strokeWidth=1;fontSize=12;" parent="WIyWlLk6GJQsqaUBKTNV-1" source="sWB0CcJkNlTnmJcERW5W-35" target="sWB0CcJkNlTnmJcERW5W-116" edge="1">
                    <mxGeometry relative="1" as="geometry"/>
                </mxCell>
                <mxCell id="sWB0CcJkNlTnmJcERW5W-35" value="" style="rounded=0;whiteSpace=wrap;html=1;" parent="WIyWlLk6GJQsqaUBKTNV-1" vertex="1">
                    <mxGeometry x="1029" y="1604.86" width="520" height="10" as="geometry"/>
                </mxCell>
                <mxCell id="sWB0CcJkNlTnmJcERW5W-46" style="edgeStyle=orthogonalEdgeStyle;rounded=0;orthogonalLoop=1;jettySize=auto;html=1;strokeWidth=1;fontSize=12;" parent="WIyWlLk6GJQsqaUBKTNV-1" source="sWB0CcJkNlTnmJcERW5W-39" target="sWB0CcJkNlTnmJcERW5W-45" edge="1">
                    <mxGeometry relative="1" as="geometry"/>
                </mxCell>
                <mxCell id="sWB0CcJkNlTnmJcERW5W-47" style="edgeStyle=orthogonalEdgeStyle;rounded=0;orthogonalLoop=1;jettySize=auto;html=1;strokeWidth=1;fontSize=12;" parent="WIyWlLk6GJQsqaUBKTNV-1" source="sWB0CcJkNlTnmJcERW5W-39" target="sWB0CcJkNlTnmJcERW5W-41" edge="1">
                    <mxGeometry relative="1" as="geometry"/>
                </mxCell>
                <mxCell id="sWB0CcJkNlTnmJcERW5W-48" style="edgeStyle=orthogonalEdgeStyle;rounded=0;orthogonalLoop=1;jettySize=auto;html=1;strokeWidth=1;fontSize=12;" parent="WIyWlLk6GJQsqaUBKTNV-1" source="sWB0CcJkNlTnmJcERW5W-39" target="sWB0CcJkNlTnmJcERW5W-43" edge="1">
                    <mxGeometry relative="1" as="geometry"/>
                </mxCell>
                <mxCell id="sWB0CcJkNlTnmJcERW5W-49" style="edgeStyle=orthogonalEdgeStyle;rounded=0;orthogonalLoop=1;jettySize=auto;html=1;entryX=0.5;entryY=0;entryDx=0;entryDy=0;strokeWidth=1;fontSize=12;" parent="WIyWlLk6GJQsqaUBKTNV-1" source="sWB0CcJkNlTnmJcERW5W-39" target="sWB0CcJkNlTnmJcERW5W-44" edge="1">
                    <mxGeometry relative="1" as="geometry"/>
                </mxCell>
                <mxCell id="sWB0CcJkNlTnmJcERW5W-50" style="edgeStyle=orthogonalEdgeStyle;rounded=0;orthogonalLoop=1;jettySize=auto;html=1;entryX=0.5;entryY=0;entryDx=0;entryDy=0;strokeWidth=1;fontSize=12;" parent="WIyWlLk6GJQsqaUBKTNV-1" source="sWB0CcJkNlTnmJcERW5W-39" target="sWB0CcJkNlTnmJcERW5W-42" edge="1">
                    <mxGeometry relative="1" as="geometry"/>
                </mxCell>
                <mxCell id="sWB0CcJkNlTnmJcERW5W-39" value="View List of Update and Event Posts" style="rounded=1;whiteSpace=wrap;html=1;strokeWidth=1;fontSize=12;" parent="WIyWlLk6GJQsqaUBKTNV-1" vertex="1">
                    <mxGeometry x="-186" y="1200" width="120" height="60" as="geometry"/>
                </mxCell>
                <mxCell id="sWB0CcJkNlTnmJcERW5W-53" style="edgeStyle=orthogonalEdgeStyle;rounded=0;orthogonalLoop=1;jettySize=auto;html=1;strokeWidth=1;fontSize=12;" parent="WIyWlLk6GJQsqaUBKTNV-1" source="sWB0CcJkNlTnmJcERW5W-40" target="sWB0CcJkNlTnmJcERW5W-52" edge="1">
                    <mxGeometry relative="1" as="geometry"/>
                </mxCell>
                <mxCell id="sWB0CcJkNlTnmJcERW5W-40" value="Can Search Posts by Post content, event, or farmer" style="rounded=1;whiteSpace=wrap;html=1;strokeWidth=1;fontSize=12;" parent="WIyWlLk6GJQsqaUBKTNV-1" vertex="1">
                    <mxGeometry x="-661" y="1209" width="120" height="60" as="geometry"/>
                </mxCell>
                <mxCell id="sWB0CcJkNlTnmJcERW5W-41" value="Like Posts" style="rounded=1;whiteSpace=wrap;html=1;strokeWidth=1;fontSize=12;" parent="WIyWlLk6GJQsqaUBKTNV-1" vertex="1">
                    <mxGeometry x="-185" y="1301" width="120" height="60" as="geometry"/>
                </mxCell>
                <mxCell id="sWB0CcJkNlTnmJcERW5W-42" value="Share Post Links" style="rounded=1;whiteSpace=wrap;html=1;strokeWidth=1;fontSize=12;" parent="WIyWlLk6GJQsqaUBKTNV-1" vertex="1">
                    <mxGeometry x="-483" y="1302" width="120" height="60" as="geometry"/>
                </mxCell>
                <mxCell id="sWB0CcJkNlTnmJcERW5W-43" value="Comment on Posts" style="rounded=1;whiteSpace=wrap;html=1;strokeWidth=1;fontSize=12;" parent="WIyWlLk6GJQsqaUBKTNV-1" vertex="1">
                    <mxGeometry x="-44" y="1300" width="120" height="60" as="geometry"/>
                </mxCell>
                <mxCell id="sWB0CcJkNlTnmJcERW5W-130" style="edgeStyle=orthogonalEdgeStyle;rounded=0;orthogonalLoop=1;jettySize=auto;html=1;strokeWidth=1;fontSize=12;" parent="WIyWlLk6GJQsqaUBKTNV-1" source="sWB0CcJkNlTnmJcERW5W-44" target="sWB0CcJkNlTnmJcERW5W-129" edge="1">
                    <mxGeometry relative="1" as="geometry"/>
                </mxCell>
                <mxCell id="sWB0CcJkNlTnmJcERW5W-44" value="Navigate to Farmer Profile Page" style="rounded=1;whiteSpace=wrap;html=1;strokeWidth=1;fontSize=12;" parent="WIyWlLk6GJQsqaUBKTNV-1" vertex="1">
                    <mxGeometry x="99" y="1298" width="120" height="60" as="geometry"/>
                </mxCell>
                <mxCell id="sWB0CcJkNlTnmJcERW5W-45" value="Join Events" style="rounded=1;whiteSpace=wrap;html=1;strokeWidth=1;fontSize=12;" parent="WIyWlLk6GJQsqaUBKTNV-1" vertex="1">
                    <mxGeometry x="-330" y="1301" width="120" height="60" as="geometry"/>
                </mxCell>
                <mxCell id="sWB0CcJkNlTnmJcERW5W-62" style="edgeStyle=orthogonalEdgeStyle;rounded=0;orthogonalLoop=1;jettySize=auto;html=1;strokeWidth=1;fontSize=12;" parent="WIyWlLk6GJQsqaUBKTNV-1" source="sWB0CcJkNlTnmJcERW5W-51" target="sWB0CcJkNlTnmJcERW5W-54" edge="1">
                    <mxGeometry relative="1" as="geometry"/>
                </mxCell>
                <mxCell id="sWB0CcJkNlTnmJcERW5W-63" style="edgeStyle=orthogonalEdgeStyle;rounded=0;orthogonalLoop=1;jettySize=auto;html=1;entryX=0.5;entryY=0;entryDx=0;entryDy=0;strokeWidth=1;fontSize=12;" parent="WIyWlLk6GJQsqaUBKTNV-1" source="sWB0CcJkNlTnmJcERW5W-51" target="sWB0CcJkNlTnmJcERW5W-61" edge="1">
                    <mxGeometry relative="1" as="geometry"/>
                </mxCell>
                <mxCell id="sWB0CcJkNlTnmJcERW5W-51" value="Toggle Menu" style="rounded=1;whiteSpace=wrap;html=1;strokeWidth=1;fontSize=12;" parent="WIyWlLk6GJQsqaUBKTNV-1" vertex="1">
                    <mxGeometry x="-979" y="1209" width="120" height="60" as="geometry"/>
                </mxCell>
                <mxCell id="sWB0CcJkNlTnmJcERW5W-82" style="edgeStyle=orthogonalEdgeStyle;rounded=0;orthogonalLoop=1;jettySize=auto;html=1;entryX=0;entryY=0.5;entryDx=0;entryDy=0;strokeWidth=1;fontSize=12;" parent="WIyWlLk6GJQsqaUBKTNV-1" source="sWB0CcJkNlTnmJcERW5W-52" target="sWB0CcJkNlTnmJcERW5W-39" edge="1">
                    <mxGeometry relative="1" as="geometry">
                        <Array as="points">
                            <mxPoint x="-515" y="1336"/>
                            <mxPoint x="-515" y="1230"/>
                        </Array>
                    </mxGeometry>
                </mxCell>
                <mxCell id="sWB0CcJkNlTnmJcERW5W-52" value="display list of qualified posts" style="rounded=1;whiteSpace=wrap;html=1;strokeWidth=1;fontSize=12;" parent="WIyWlLk6GJQsqaUBKTNV-1" vertex="1">
                    <mxGeometry x="-661" y="1306" width="120" height="60" as="geometry"/>
                </mxCell>
                <mxCell id="sWB0CcJkNlTnmJcERW5W-70" style="edgeStyle=orthogonalEdgeStyle;rounded=0;orthogonalLoop=1;jettySize=auto;html=1;entryX=0.5;entryY=0;entryDx=0;entryDy=0;strokeWidth=1;fontSize=12;" parent="WIyWlLk6GJQsqaUBKTNV-1" source="sWB0CcJkNlTnmJcERW5W-54" target="sWB0CcJkNlTnmJcERW5W-67" edge="1">
                    <mxGeometry relative="1" as="geometry"/>
                </mxCell>
                <mxCell id="sWB0CcJkNlTnmJcERW5W-54" value="Navigate to Update Customer Info Page" style="rounded=1;whiteSpace=wrap;html=1;strokeWidth=1;fontSize=12;" parent="WIyWlLk6GJQsqaUBKTNV-1" vertex="1">
                    <mxGeometry x="-979" y="1309" width="120" height="60" as="geometry"/>
                </mxCell>
                <mxCell id="sWB0CcJkNlTnmJcERW5W-55" value="Navigate to update info page" style="rounded=1;whiteSpace=wrap;html=1;strokeWidth=1;fontSize=12;" parent="WIyWlLk6GJQsqaUBKTNV-1" vertex="1">
                    <mxGeometry x="1179" y="1350.86" width="120" height="60" as="geometry"/>
                </mxCell>
                <mxCell id="sWB0CcJkNlTnmJcERW5W-56" value="Navigate to update product page" style="rounded=1;whiteSpace=wrap;html=1;strokeWidth=1;fontSize=12;" parent="WIyWlLk6GJQsqaUBKTNV-1" vertex="1">
                    <mxGeometry x="1325" y="1349.86" width="120" height="60" as="geometry"/>
                </mxCell>
                <mxCell id="sWB0CcJkNlTnmJcERW5W-80" style="edgeStyle=orthogonalEdgeStyle;rounded=0;orthogonalLoop=1;jettySize=auto;html=1;entryX=0;entryY=0.5;entryDx=0;entryDy=0;strokeWidth=1;fontSize=12;" parent="WIyWlLk6GJQsqaUBKTNV-1" source="sWB0CcJkNlTnmJcERW5W-57" target="sWB0CcJkNlTnmJcERW5W-79" edge="1">
                    <mxGeometry relative="1" as="geometry"/>
                </mxCell>
                <mxCell id="sWB0CcJkNlTnmJcERW5W-57" value="Logout" style="rounded=1;whiteSpace=wrap;html=1;strokeWidth=1;fontSize=12;" parent="WIyWlLk6GJQsqaUBKTNV-1" vertex="1">
                    <mxGeometry x="1471" y="1347.86" width="120" height="60" as="geometry"/>
                </mxCell>
                <mxCell id="sWB0CcJkNlTnmJcERW5W-75" style="edgeStyle=orthogonalEdgeStyle;rounded=0;orthogonalLoop=1;jettySize=auto;html=1;entryX=0.5;entryY=0;entryDx=0;entryDy=0;strokeWidth=1;fontSize=12;" parent="WIyWlLk6GJQsqaUBKTNV-1" source="sWB0CcJkNlTnmJcERW5W-61" target="sWB0CcJkNlTnmJcERW5W-74" edge="1">
                    <mxGeometry relative="1" as="geometry"/>
                </mxCell>
                <mxCell id="sWB0CcJkNlTnmJcERW5W-61" value="Logout" style="rounded=1;whiteSpace=wrap;html=1;strokeWidth=1;fontSize=12;" parent="WIyWlLk6GJQsqaUBKTNV-1" vertex="1">
                    <mxGeometry x="-1135" y="1309" width="120" height="60" as="geometry"/>
                </mxCell>
                <mxCell id="sWB0CcJkNlTnmJcERW5W-71" style="edgeStyle=orthogonalEdgeStyle;rounded=0;orthogonalLoop=1;jettySize=auto;html=1;strokeWidth=1;fontSize=12;" parent="WIyWlLk6GJQsqaUBKTNV-1" source="sWB0CcJkNlTnmJcERW5W-67" target="sWB0CcJkNlTnmJcERW5W-69" edge="1">
                    <mxGeometry relative="1" as="geometry"/>
                </mxCell>
                <mxCell id="sWB0CcJkNlTnmJcERW5W-67" value="Modify User Info and Credit Card Info" style="rounded=1;whiteSpace=wrap;html=1;strokeWidth=1;fontSize=12;" parent="WIyWlLk6GJQsqaUBKTNV-1" vertex="1">
                    <mxGeometry x="-979" y="1412" width="120" height="60" as="geometry"/>
                </mxCell>
                <mxCell id="sWB0CcJkNlTnmJcERW5W-73" style="edgeStyle=orthogonalEdgeStyle;rounded=0;orthogonalLoop=1;jettySize=auto;html=1;entryX=0.5;entryY=0;entryDx=0;entryDy=0;strokeWidth=1;fontSize=12;" parent="WIyWlLk6GJQsqaUBKTNV-1" source="sWB0CcJkNlTnmJcERW5W-69" target="sWB0CcJkNlTnmJcERW5W-72" edge="1">
                    <mxGeometry relative="1" as="geometry"/>
                </mxCell>
                <mxCell id="sWB0CcJkNlTnmJcERW5W-69" value="Save or Cancel Update" style="rhombus;whiteSpace=wrap;html=1;strokeWidth=1;fontSize=12;" parent="WIyWlLk6GJQsqaUBKTNV-1" vertex="1">
                    <mxGeometry x="-959" y="1509" width="80" height="80" as="geometry"/>
                </mxCell>
                <mxCell id="sWB0CcJkNlTnmJcERW5W-72" value="Show Save Success Message" style="rounded=1;whiteSpace=wrap;html=1;strokeWidth=1;fontSize=12;" parent="WIyWlLk6GJQsqaUBKTNV-1" vertex="1">
                    <mxGeometry x="-979" y="1623" width="120" height="60" as="geometry"/>
                </mxCell>
                <mxCell id="sWB0CcJkNlTnmJcERW5W-77" style="edgeStyle=orthogonalEdgeStyle;rounded=0;orthogonalLoop=1;jettySize=auto;html=1;entryX=0.5;entryY=0;entryDx=0;entryDy=0;strokeWidth=1;fontSize=12;" parent="WIyWlLk6GJQsqaUBKTNV-1" source="sWB0CcJkNlTnmJcERW5W-74" target="sWB0CcJkNlTnmJcERW5W-76" edge="1">
                    <mxGeometry relative="1" as="geometry"/>
                </mxCell>
                <mxCell id="sWB0CcJkNlTnmJcERW5W-74" value="Return to sign in page" style="rounded=1;whiteSpace=wrap;html=1;strokeWidth=1;fontSize=12;" parent="WIyWlLk6GJQsqaUBKTNV-1" vertex="1">
                    <mxGeometry x="-1135" y="1411" width="120" height="60" as="geometry"/>
                </mxCell>
                <mxCell id="sWB0CcJkNlTnmJcERW5W-76" value="" style="ellipse;html=1;shape=endState;fillColor=#000000;strokeColor=#ff0000;fontSize=12;" parent="WIyWlLk6GJQsqaUBKTNV-1" vertex="1">
                    <mxGeometry x="-1090" y="1520" width="30" height="30" as="geometry"/>
                </mxCell>
                <mxCell id="sWB0CcJkNlTnmJcERW5W-78" value="" style="ellipse;html=1;shape=endState;fillColor=#000000;strokeColor=#ff0000;fontSize=12;" parent="WIyWlLk6GJQsqaUBKTNV-1" vertex="1">
                    <mxGeometry x="1812" y="1362.86" width="30" height="30" as="geometry"/>
                </mxCell>
                <mxCell id="sWB0CcJkNlTnmJcERW5W-81" style="edgeStyle=orthogonalEdgeStyle;rounded=0;orthogonalLoop=1;jettySize=auto;html=1;entryX=0;entryY=0.5;entryDx=0;entryDy=0;strokeWidth=1;fontSize=12;" parent="WIyWlLk6GJQsqaUBKTNV-1" source="sWB0CcJkNlTnmJcERW5W-79" target="sWB0CcJkNlTnmJcERW5W-78" edge="1">
                    <mxGeometry relative="1" as="geometry"/>
                </mxCell>
                <mxCell id="sWB0CcJkNlTnmJcERW5W-79" value="Return to sign in page" style="rounded=1;whiteSpace=wrap;html=1;strokeWidth=1;fontSize=12;" parent="WIyWlLk6GJQsqaUBKTNV-1" vertex="1">
                    <mxGeometry x="1646" y="1347.86" width="120" height="60" as="geometry"/>
                </mxCell>
                <mxCell id="sWB0CcJkNlTnmJcERW5W-86" style="edgeStyle=orthogonalEdgeStyle;rounded=0;orthogonalLoop=1;jettySize=auto;html=1;strokeWidth=1;fontSize=12;" parent="WIyWlLk6GJQsqaUBKTNV-1" source="sWB0CcJkNlTnmJcERW5W-83" target="sWB0CcJkNlTnmJcERW5W-85" edge="1">
                    <mxGeometry relative="1" as="geometry">
                        <Array as="points">
                            <mxPoint x="-759" y="1415"/>
                            <mxPoint x="-759" y="1415"/>
                        </Array>
                    </mxGeometry>
                </mxCell>
                <mxCell id="sWB0CcJkNlTnmJcERW5W-83" value="Navigate to the Customer Profile Page" style="rounded=1;whiteSpace=wrap;html=1;strokeWidth=1;fontSize=12;" parent="WIyWlLk6GJQsqaUBKTNV-1" vertex="1">
                    <mxGeometry x="-820" y="1207" width="120" height="60" as="geometry"/>
                </mxCell>
                <mxCell id="sWB0CcJkNlTnmJcERW5W-92" style="edgeStyle=orthogonalEdgeStyle;rounded=0;orthogonalLoop=1;jettySize=auto;html=1;exitX=0;exitY=0.25;exitDx=0;exitDy=0;entryX=1;entryY=0.5;entryDx=0;entryDy=0;strokeWidth=1;fontSize=12;" parent="WIyWlLk6GJQsqaUBKTNV-1" source="sWB0CcJkNlTnmJcERW5W-85" target="sWB0CcJkNlTnmJcERW5W-51" edge="1">
                    <mxGeometry relative="1" as="geometry"/>
                </mxCell>
                <mxCell id="sWB0CcJkNlTnmJcERW5W-93" style="edgeStyle=orthogonalEdgeStyle;rounded=0;orthogonalLoop=1;jettySize=auto;html=1;entryX=0.5;entryY=0;entryDx=0;entryDy=0;strokeWidth=1;fontSize=12;" parent="WIyWlLk6GJQsqaUBKTNV-1" source="sWB0CcJkNlTnmJcERW5W-85" target="sWB0CcJkNlTnmJcERW5W-87" edge="1">
                    <mxGeometry relative="1" as="geometry"/>
                </mxCell>
                <mxCell id="sWB0CcJkNlTnmJcERW5W-94" style="edgeStyle=orthogonalEdgeStyle;rounded=0;orthogonalLoop=1;jettySize=auto;html=1;entryX=0.5;entryY=0;entryDx=0;entryDy=0;strokeWidth=1;fontSize=12;" parent="WIyWlLk6GJQsqaUBKTNV-1" source="sWB0CcJkNlTnmJcERW5W-85" target="sWB0CcJkNlTnmJcERW5W-88" edge="1">
                    <mxGeometry relative="1" as="geometry"/>
                </mxCell>
                <mxCell id="sWB0CcJkNlTnmJcERW5W-95" style="edgeStyle=orthogonalEdgeStyle;rounded=0;orthogonalLoop=1;jettySize=auto;html=1;strokeWidth=1;fontSize=12;" parent="WIyWlLk6GJQsqaUBKTNV-1" source="sWB0CcJkNlTnmJcERW5W-85" target="sWB0CcJkNlTnmJcERW5W-89" edge="1">
                    <mxGeometry relative="1" as="geometry"/>
                </mxCell>
                <mxCell id="sWB0CcJkNlTnmJcERW5W-96" style="edgeStyle=orthogonalEdgeStyle;rounded=0;orthogonalLoop=1;jettySize=auto;html=1;strokeWidth=1;fontSize=12;" parent="WIyWlLk6GJQsqaUBKTNV-1" source="sWB0CcJkNlTnmJcERW5W-85" target="sWB0CcJkNlTnmJcERW5W-91" edge="1">
                    <mxGeometry relative="1" as="geometry"/>
                </mxCell>
                <mxCell id="sWB0CcJkNlTnmJcERW5W-98" style="edgeStyle=orthogonalEdgeStyle;rounded=0;orthogonalLoop=1;jettySize=auto;html=1;entryX=0.5;entryY=0;entryDx=0;entryDy=0;strokeWidth=1;fontSize=12;" parent="WIyWlLk6GJQsqaUBKTNV-1" source="sWB0CcJkNlTnmJcERW5W-85" target="sWB0CcJkNlTnmJcERW5W-90" edge="1">
                    <mxGeometry relative="1" as="geometry"/>
                </mxCell>
                <mxCell id="sWB0CcJkNlTnmJcERW5W-85" value="" style="rounded=0;whiteSpace=wrap;html=1;" parent="WIyWlLk6GJQsqaUBKTNV-1" vertex="1">
                    <mxGeometry x="-802" y="1462" width="520" height="10" as="geometry"/>
                </mxCell>
                <mxCell id="sWB0CcJkNlTnmJcERW5W-87" value="View Earned Farm Credits" style="rounded=1;whiteSpace=wrap;html=1;strokeWidth=1;fontSize=12;" parent="WIyWlLk6GJQsqaUBKTNV-1" vertex="1">
                    <mxGeometry x="-807" y="1583" width="120" height="60" as="geometry"/>
                </mxCell>
                <mxCell id="sWB0CcJkNlTnmJcERW5W-88" value="View Shopping History" style="rounded=1;whiteSpace=wrap;html=1;strokeWidth=1;fontSize=12;" parent="WIyWlLk6GJQsqaUBKTNV-1" vertex="1">
                    <mxGeometry x="-639" y="1582" width="120" height="60" as="geometry"/>
                </mxCell>
                <mxCell id="sWB0CcJkNlTnmJcERW5W-100" style="edgeStyle=orthogonalEdgeStyle;rounded=0;orthogonalLoop=1;jettySize=auto;html=1;strokeWidth=1;fontSize=12;" parent="WIyWlLk6GJQsqaUBKTNV-1" source="sWB0CcJkNlTnmJcERW5W-89" target="sWB0CcJkNlTnmJcERW5W-99" edge="1">
                    <mxGeometry relative="1" as="geometry"/>
                </mxCell>
                <mxCell id="sWB0CcJkNlTnmJcERW5W-89" value="View Lists of Followed Farmers" style="rounded=1;whiteSpace=wrap;html=1;strokeWidth=1;fontSize=12;" parent="WIyWlLk6GJQsqaUBKTNV-1" vertex="1">
                    <mxGeometry x="-472" y="1584" width="120" height="60" as="geometry"/>
                </mxCell>
                <mxCell id="sWB0CcJkNlTnmJcERW5W-102" value="" style="edgeStyle=orthogonalEdgeStyle;rounded=0;orthogonalLoop=1;jettySize=auto;html=1;strokeWidth=1;fontSize=12;" parent="WIyWlLk6GJQsqaUBKTNV-1" source="sWB0CcJkNlTnmJcERW5W-90" target="sWB0CcJkNlTnmJcERW5W-101" edge="1">
                    <mxGeometry relative="1" as="geometry"/>
                </mxCell>
                <mxCell id="sWB0CcJkNlTnmJcERW5W-90" value="View Upcoming Events" style="rounded=1;whiteSpace=wrap;html=1;strokeWidth=1;fontSize=12;" parent="WIyWlLk6GJQsqaUBKTNV-1" vertex="1">
                    <mxGeometry x="-306" y="1583" width="120" height="60" as="geometry"/>
                </mxCell>
                <mxCell id="sWB0CcJkNlTnmJcERW5W-104" style="edgeStyle=orthogonalEdgeStyle;rounded=0;orthogonalLoop=1;jettySize=auto;html=1;entryX=0.5;entryY=0;entryDx=0;entryDy=0;strokeWidth=1;fontSize=12;" parent="WIyWlLk6GJQsqaUBKTNV-1" source="sWB0CcJkNlTnmJcERW5W-91" target="sWB0CcJkNlTnmJcERW5W-103" edge="1">
                    <mxGeometry relative="1" as="geometry"/>
                </mxCell>
                <mxCell id="sWB0CcJkNlTnmJcERW5W-91" value="Navigate to direct message contact list page" style="rounded=1;whiteSpace=wrap;html=1;strokeWidth=1;fontSize=12;" parent="WIyWlLk6GJQsqaUBKTNV-1" vertex="1">
                    <mxGeometry x="-145" y="1584" width="120" height="60" as="geometry"/>
                </mxCell>
                <mxCell id="sWB0CcJkNlTnmJcERW5W-99" value="Unfollow Farmers" style="rounded=1;whiteSpace=wrap;html=1;strokeWidth=1;fontSize=12;" parent="WIyWlLk6GJQsqaUBKTNV-1" vertex="1">
                    <mxGeometry x="-472" y="1714" width="120" height="60" as="geometry"/>
                </mxCell>
                <mxCell id="sWB0CcJkNlTnmJcERW5W-101" value="Cancel Event RSVP" style="rounded=1;whiteSpace=wrap;html=1;strokeWidth=1;fontSize=12;" parent="WIyWlLk6GJQsqaUBKTNV-1" vertex="1">
                    <mxGeometry x="-306" y="1714" width="120" height="60" as="geometry"/>
                </mxCell>
                <mxCell id="sWB0CcJkNlTnmJcERW5W-107" style="edgeStyle=orthogonalEdgeStyle;rounded=0;orthogonalLoop=1;jettySize=auto;html=1;entryX=0.5;entryY=0;entryDx=0;entryDy=0;strokeWidth=1;fontSize=12;" parent="WIyWlLk6GJQsqaUBKTNV-1" source="sWB0CcJkNlTnmJcERW5W-103" target="sWB0CcJkNlTnmJcERW5W-105" edge="1">
                    <mxGeometry relative="1" as="geometry"/>
                </mxCell>
                <mxCell id="sWB0CcJkNlTnmJcERW5W-108" style="edgeStyle=orthogonalEdgeStyle;rounded=0;orthogonalLoop=1;jettySize=auto;html=1;strokeWidth=1;fontSize=12;" parent="WIyWlLk6GJQsqaUBKTNV-1" source="sWB0CcJkNlTnmJcERW5W-103" target="sWB0CcJkNlTnmJcERW5W-106" edge="1">
                    <mxGeometry relative="1" as="geometry"/>
                </mxCell>
                <mxCell id="sWB0CcJkNlTnmJcERW5W-123" style="edgeStyle=orthogonalEdgeStyle;rounded=0;orthogonalLoop=1;jettySize=auto;html=1;entryX=0.5;entryY=0;entryDx=0;entryDy=0;strokeWidth=1;fontSize=12;" parent="WIyWlLk6GJQsqaUBKTNV-1" source="sWB0CcJkNlTnmJcERW5W-103" target="sWB0CcJkNlTnmJcERW5W-122" edge="1">
                    <mxGeometry relative="1" as="geometry"/>
                </mxCell>
                <mxCell id="sWB0CcJkNlTnmJcERW5W-103" value="Navigate to direct message page" style="rounded=1;whiteSpace=wrap;html=1;strokeWidth=1;fontSize=12;" parent="WIyWlLk6GJQsqaUBKTNV-1" vertex="1">
                    <mxGeometry x="-145" y="1713" width="120" height="60" as="geometry"/>
                </mxCell>
                <mxCell id="sWB0CcJkNlTnmJcERW5W-105" value="Accept farm credit from farmers" style="rounded=1;whiteSpace=wrap;html=1;strokeWidth=1;fontSize=12;" parent="WIyWlLk6GJQsqaUBKTNV-1" vertex="1">
                    <mxGeometry x="-145" y="1825" width="120" height="60" as="geometry"/>
                </mxCell>
                <mxCell id="sWB0CcJkNlTnmJcERW5W-106" value="Send Text or Image Message" style="rounded=1;whiteSpace=wrap;html=1;strokeWidth=1;fontSize=12;" parent="WIyWlLk6GJQsqaUBKTNV-1" vertex="1">
                    <mxGeometry x="2" y="1823" width="120" height="60" as="geometry"/>
                </mxCell>
                <mxCell id="sWB0CcJkNlTnmJcERW5W-115" style="edgeStyle=orthogonalEdgeStyle;rounded=0;orthogonalLoop=1;jettySize=auto;html=1;entryX=0.5;entryY=0;entryDx=0;entryDy=0;strokeWidth=1;fontSize=12;" parent="WIyWlLk6GJQsqaUBKTNV-1" source="sWB0CcJkNlTnmJcERW5W-111" target="sWB0CcJkNlTnmJcERW5W-35" edge="1">
                    <mxGeometry relative="1" as="geometry"/>
                </mxCell>
                <mxCell id="sWB0CcJkNlTnmJcERW5W-111" value="Navigate to direct message page" style="rounded=1;whiteSpace=wrap;html=1;strokeWidth=1;fontSize=12;" parent="WIyWlLk6GJQsqaUBKTNV-1" vertex="1">
                    <mxGeometry x="1019" y="1424.86" width="120" height="60" as="geometry"/>
                </mxCell>
                <mxCell id="sWB0CcJkNlTnmJcERW5W-112" value="Send farm credit from customers" style="rounded=1;whiteSpace=wrap;html=1;strokeWidth=1;fontSize=12;" parent="WIyWlLk6GJQsqaUBKTNV-1" vertex="1">
                    <mxGeometry x="1031" y="1679.86" width="120" height="60" as="geometry"/>
                </mxCell>
                <mxCell id="sWB0CcJkNlTnmJcERW5W-113" value="Send Text or Image Message" style="rounded=1;whiteSpace=wrap;html=1;strokeWidth=1;fontSize=12;" parent="WIyWlLk6GJQsqaUBKTNV-1" vertex="1">
                    <mxGeometry x="1230" y="1681.86" width="120" height="60" as="geometry"/>
                </mxCell>
                <mxCell id="sWB0CcJkNlTnmJcERW5W-116" value="Accept or Decline Event RSVP&amp;nbsp; from Customers" style="rounded=1;whiteSpace=wrap;html=1;strokeWidth=1;fontSize=12;" parent="WIyWlLk6GJQsqaUBKTNV-1" vertex="1">
                    <mxGeometry x="1423" y="1680.86" width="120" height="60" as="geometry"/>
                </mxCell>
                <mxCell id="sWB0CcJkNlTnmJcERW5W-122" value="Receive confirmation of Event RSVP from Farmers" style="rounded=1;whiteSpace=wrap;html=1;strokeWidth=1;fontSize=12;" parent="WIyWlLk6GJQsqaUBKTNV-1" vertex="1">
                    <mxGeometry x="149" y="1825" width="120" height="60" as="geometry"/>
                </mxCell>
                <mxCell id="sWB0CcJkNlTnmJcERW5W-140" style="edgeStyle=orthogonalEdgeStyle;rounded=0;orthogonalLoop=1;jettySize=auto;html=1;entryX=0.5;entryY=0;entryDx=0;entryDy=0;strokeWidth=1;fontSize=12;" parent="WIyWlLk6GJQsqaUBKTNV-1" source="sWB0CcJkNlTnmJcERW5W-129" target="sWB0CcJkNlTnmJcERW5W-131" edge="1">
                    <mxGeometry relative="1" as="geometry"/>
                </mxCell>
                <mxCell id="sWB0CcJkNlTnmJcERW5W-141" style="edgeStyle=orthogonalEdgeStyle;rounded=0;orthogonalLoop=1;jettySize=auto;html=1;strokeWidth=1;fontSize=12;" parent="WIyWlLk6GJQsqaUBKTNV-1" source="sWB0CcJkNlTnmJcERW5W-129" target="sWB0CcJkNlTnmJcERW5W-133" edge="1">
                    <mxGeometry relative="1" as="geometry"/>
                </mxCell>
                <mxCell id="sWB0CcJkNlTnmJcERW5W-142" style="edgeStyle=orthogonalEdgeStyle;rounded=0;orthogonalLoop=1;jettySize=auto;html=1;strokeWidth=1;fontSize=12;" parent="WIyWlLk6GJQsqaUBKTNV-1" source="sWB0CcJkNlTnmJcERW5W-129" target="sWB0CcJkNlTnmJcERW5W-132" edge="1">
                    <mxGeometry relative="1" as="geometry"/>
                </mxCell>
                <mxCell id="sWB0CcJkNlTnmJcERW5W-161" style="edgeStyle=orthogonalEdgeStyle;rounded=0;orthogonalLoop=1;jettySize=auto;html=1;entryX=0.5;entryY=0;entryDx=0;entryDy=0;strokeWidth=1;fontSize=12;" parent="WIyWlLk6GJQsqaUBKTNV-1" source="sWB0CcJkNlTnmJcERW5W-129" target="sWB0CcJkNlTnmJcERW5W-158" edge="1">
                    <mxGeometry relative="1" as="geometry"/>
                </mxCell>
                <mxCell id="sWB0CcJkNlTnmJcERW5W-129" value="" style="rounded=0;whiteSpace=wrap;html=1;" parent="WIyWlLk6GJQsqaUBKTNV-1" vertex="1">
                    <mxGeometry x="-12" y="1414.86" width="520" height="10" as="geometry"/>
                </mxCell>
                <mxCell id="sWB0CcJkNlTnmJcERW5W-131" value="View Farm's Info" style="rounded=1;whiteSpace=wrap;html=1;strokeWidth=1;fontSize=12;" parent="WIyWlLk6GJQsqaUBKTNV-1" vertex="1">
                    <mxGeometry x="81" y="1461" width="120" height="60" as="geometry"/>
                </mxCell>
                <mxCell id="sWB0CcJkNlTnmJcERW5W-134" style="edgeStyle=orthogonalEdgeStyle;rounded=0;orthogonalLoop=1;jettySize=auto;html=1;entryX=0.75;entryY=0;entryDx=0;entryDy=0;strokeWidth=1;fontSize=12;" parent="WIyWlLk6GJQsqaUBKTNV-1" source="sWB0CcJkNlTnmJcERW5W-132" target="sWB0CcJkNlTnmJcERW5W-39" edge="1">
                    <mxGeometry relative="1" as="geometry">
                        <Array as="points">
                            <mxPoint x="568" y="1495"/>
                            <mxPoint x="568" y="1180"/>
                            <mxPoint x="-96" y="1180"/>
                        </Array>
                    </mxGeometry>
                </mxCell>
                <mxCell id="sWB0CcJkNlTnmJcERW5W-132" value="View List of Update Posts by the Farmer" style="rounded=1;whiteSpace=wrap;html=1;strokeWidth=1;fontSize=12;" parent="WIyWlLk6GJQsqaUBKTNV-1" vertex="1">
                    <mxGeometry x="393" y="1465" width="120" height="60" as="geometry"/>
                </mxCell>
                <mxCell id="sWB0CcJkNlTnmJcERW5W-138" style="edgeStyle=orthogonalEdgeStyle;rounded=0;orthogonalLoop=1;jettySize=auto;html=1;entryX=0.5;entryY=0;entryDx=0;entryDy=0;strokeWidth=1;fontSize=12;" parent="WIyWlLk6GJQsqaUBKTNV-1" source="sWB0CcJkNlTnmJcERW5W-133" target="sWB0CcJkNlTnmJcERW5W-135" edge="1">
                    <mxGeometry relative="1" as="geometry"/>
                </mxCell>
                <mxCell id="sWB0CcJkNlTnmJcERW5W-133" value="Purchase farm products" style="rounded=1;whiteSpace=wrap;html=1;strokeWidth=1;fontSize=12;" parent="WIyWlLk6GJQsqaUBKTNV-1" vertex="1">
                    <mxGeometry x="237" y="1466" width="120" height="60" as="geometry"/>
                </mxCell>
                <mxCell id="sWB0CcJkNlTnmJcERW5W-139" style="edgeStyle=orthogonalEdgeStyle;rounded=0;orthogonalLoop=1;jettySize=auto;html=1;entryX=0.5;entryY=0;entryDx=0;entryDy=0;strokeWidth=1;fontSize=12;" parent="WIyWlLk6GJQsqaUBKTNV-1" source="sWB0CcJkNlTnmJcERW5W-135" target="sWB0CcJkNlTnmJcERW5W-136" edge="1">
                    <mxGeometry relative="1" as="geometry"/>
                </mxCell>
                <mxCell id="sWB0CcJkNlTnmJcERW5W-135" value="Enter product quality" style="rounded=1;whiteSpace=wrap;html=1;strokeWidth=1;fontSize=12;" parent="WIyWlLk6GJQsqaUBKTNV-1" vertex="1">
                    <mxGeometry x="188" y="1561" width="120" height="60" as="geometry"/>
                </mxCell>
                <mxCell id="sWB0CcJkNlTnmJcERW5W-136" value="Enter payment method (credit card or farm credits)" style="rounded=1;whiteSpace=wrap;html=1;strokeWidth=1;fontSize=12;" parent="WIyWlLk6GJQsqaUBKTNV-1" vertex="1">
                    <mxGeometry x="188" y="1649" width="120" height="60" as="geometry"/>
                </mxCell>
                <mxCell id="sWB0CcJkNlTnmJcERW5W-145" style="edgeStyle=orthogonalEdgeStyle;rounded=0;orthogonalLoop=1;jettySize=auto;html=1;exitX=0.5;exitY=0;exitDx=0;exitDy=0;entryX=1;entryY=0.5;entryDx=0;entryDy=0;strokeWidth=1;fontSize=12;" parent="WIyWlLk6GJQsqaUBKTNV-1" source="sWB0CcJkNlTnmJcERW5W-143" target="sWB0CcJkNlTnmJcERW5W-133" edge="1">
                    <mxGeometry relative="1" as="geometry"/>
                </mxCell>
                <mxCell id="sWB0CcJkNlTnmJcERW5W-146" value="Reset form" style="edgeLabel;html=1;align=center;verticalAlign=middle;resizable=0;points=[];fontSize=12;" parent="sWB0CcJkNlTnmJcERW5W-145" vertex="1" connectable="0">
                    <mxGeometry x="-0.3746" y="1" relative="1" as="geometry">
                        <mxPoint as="offset"/>
                    </mxGeometry>
                </mxCell>
                <mxCell id="sWB0CcJkNlTnmJcERW5W-147" style="edgeStyle=orthogonalEdgeStyle;rounded=0;orthogonalLoop=1;jettySize=auto;html=1;strokeWidth=1;fontSize=12;" parent="WIyWlLk6GJQsqaUBKTNV-1" source="sWB0CcJkNlTnmJcERW5W-143" target="sWB0CcJkNlTnmJcERW5W-144" edge="1">
                    <mxGeometry relative="1" as="geometry">
                        <Array as="points">
                            <mxPoint x="355" y="1837"/>
                            <mxPoint x="355" y="1837"/>
                        </Array>
                    </mxGeometry>
                </mxCell>
                <mxCell id="sWB0CcJkNlTnmJcERW5W-143" value="Confirm or reset purchase form" style="rhombus;whiteSpace=wrap;html=1;strokeWidth=1;fontSize=12;" parent="WIyWlLk6GJQsqaUBKTNV-1" vertex="1">
                    <mxGeometry x="314" y="1731" width="80" height="80" as="geometry"/>
                </mxCell>
                <mxCell id="sWB0CcJkNlTnmJcERW5W-152" style="edgeStyle=orthogonalEdgeStyle;rounded=0;orthogonalLoop=1;jettySize=auto;html=1;exitX=0;exitY=1;exitDx=0;exitDy=0;entryX=0.75;entryY=0;entryDx=0;entryDy=0;strokeWidth=1;fontSize=12;" parent="WIyWlLk6GJQsqaUBKTNV-1" source="sWB0CcJkNlTnmJcERW5W-144" target="sWB0CcJkNlTnmJcERW5W-149" edge="1">
                    <mxGeometry relative="1" as="geometry"/>
                </mxCell>
                <mxCell id="sWB0CcJkNlTnmJcERW5W-153" value="Success" style="edgeLabel;html=1;align=center;verticalAlign=middle;resizable=0;points=[];fontSize=12;" parent="sWB0CcJkNlTnmJcERW5W-152" vertex="1" connectable="0">
                    <mxGeometry x="-0.2432" y="-2" relative="1" as="geometry">
                        <mxPoint as="offset"/>
                    </mxGeometry>
                </mxCell>
                <mxCell id="sWB0CcJkNlTnmJcERW5W-154" style="edgeStyle=orthogonalEdgeStyle;rounded=0;orthogonalLoop=1;jettySize=auto;html=1;exitX=1;exitY=1;exitDx=0;exitDy=0;strokeWidth=1;fontSize=12;" parent="WIyWlLk6GJQsqaUBKTNV-1" source="sWB0CcJkNlTnmJcERW5W-144" target="sWB0CcJkNlTnmJcERW5W-150" edge="1">
                    <mxGeometry relative="1" as="geometry">
                        <Array as="points">
                            <mxPoint x="374" y="1962"/>
                            <mxPoint x="431" y="1962"/>
                        </Array>
                    </mxGeometry>
                </mxCell>
                <mxCell id="sWB0CcJkNlTnmJcERW5W-144" value="Purchase success?" style="rhombus;whiteSpace=wrap;html=1;strokeWidth=1;fontSize=12;" parent="WIyWlLk6GJQsqaUBKTNV-1" vertex="1">
                    <mxGeometry x="314" y="1870" width="80" height="80" as="geometry"/>
                </mxCell>
                <mxCell id="sWB0CcJkNlTnmJcERW5W-148" value="Confirm" style="text;html=1;align=center;verticalAlign=middle;resizable=0;points=[];autosize=1;fontSize=12;" parent="WIyWlLk6GJQsqaUBKTNV-1" vertex="1">
                    <mxGeometry x="355" y="1831" width="53" height="19" as="geometry"/>
                </mxCell>
                <mxCell id="sWB0CcJkNlTnmJcERW5W-151" style="edgeStyle=orthogonalEdgeStyle;rounded=0;orthogonalLoop=1;jettySize=auto;html=1;entryX=0;entryY=0.5;entryDx=0;entryDy=0;strokeWidth=1;fontSize=12;" parent="WIyWlLk6GJQsqaUBKTNV-1" source="sWB0CcJkNlTnmJcERW5W-149" target="sWB0CcJkNlTnmJcERW5W-133" edge="1">
                    <mxGeometry relative="1" as="geometry">
                        <Array as="points">
                            <mxPoint x="296" y="1726"/>
                            <mxPoint x="168" y="1726"/>
                            <mxPoint x="168" y="1535"/>
                            <mxPoint x="217" y="1535"/>
                            <mxPoint x="217" y="1496"/>
                        </Array>
                    </mxGeometry>
                </mxCell>
                <mxCell id="sWB0CcJkNlTnmJcERW5W-157" value="return" style="edgeLabel;html=1;align=center;verticalAlign=middle;resizable=0;points=[];fontSize=12;" parent="sWB0CcJkNlTnmJcERW5W-151" vertex="1" connectable="0">
                    <mxGeometry x="-0.697" relative="1" as="geometry">
                        <mxPoint as="offset"/>
                    </mxGeometry>
                </mxCell>
                <mxCell id="sWB0CcJkNlTnmJcERW5W-149" value="Display purchase success message" style="rounded=1;whiteSpace=wrap;html=1;strokeWidth=1;fontSize=12;" parent="WIyWlLk6GJQsqaUBKTNV-1" vertex="1">
                    <mxGeometry x="224" y="1984" width="120" height="60" as="geometry"/>
                </mxCell>
                <mxCell id="sWB0CcJkNlTnmJcERW5W-155" style="edgeStyle=orthogonalEdgeStyle;rounded=0;orthogonalLoop=1;jettySize=auto;html=1;entryX=1;entryY=0.5;entryDx=0;entryDy=0;strokeWidth=1;fontSize=12;" parent="WIyWlLk6GJQsqaUBKTNV-1" source="sWB0CcJkNlTnmJcERW5W-150" target="sWB0CcJkNlTnmJcERW5W-143" edge="1">
                    <mxGeometry relative="1" as="geometry">
                        <Array as="points">
                            <mxPoint x="464" y="1771"/>
                        </Array>
                    </mxGeometry>
                </mxCell>
                <mxCell id="sWB0CcJkNlTnmJcERW5W-156" value="Try again" style="edgeLabel;html=1;align=center;verticalAlign=middle;resizable=0;points=[];fontSize=12;" parent="sWB0CcJkNlTnmJcERW5W-155" vertex="1" connectable="0">
                    <mxGeometry x="-0.344" relative="1" as="geometry">
                        <mxPoint as="offset"/>
                    </mxGeometry>
                </mxCell>
                <mxCell id="sWB0CcJkNlTnmJcERW5W-150" value="Display purchase unsuccessful message" style="rounded=1;whiteSpace=wrap;html=1;strokeWidth=1;fontSize=12;" parent="WIyWlLk6GJQsqaUBKTNV-1" vertex="1">
                    <mxGeometry x="371" y="1982" width="124" height="60" as="geometry"/>
                </mxCell>
                <mxCell id="sWB0CcJkNlTnmJcERW5W-158" value="Follow a Farmer" style="rounded=1;whiteSpace=wrap;html=1;strokeWidth=1;fontSize=12;" parent="WIyWlLk6GJQsqaUBKTNV-1" vertex="1">
                    <mxGeometry x="-52" y="1462" width="120" height="60" as="geometry"/>
                </mxCell>
                <mxCell id="3" style="edgeStyle=orthogonalEdgeStyle;rounded=0;orthogonalLoop=1;jettySize=auto;html=1;exitX=0.5;exitY=1;exitDx=0;exitDy=0;entryX=0.5;entryY=0;entryDx=0;entryDy=0;" edge="1" parent="WIyWlLk6GJQsqaUBKTNV-1" source="MtGOlrsBtDFDVX6YpHAY-0" target="2">
                    <mxGeometry relative="1" as="geometry"/>
                </mxCell>
                <mxCell id="MtGOlrsBtDFDVX6YpHAY-0" value="View New Post" style="rounded=1;whiteSpace=wrap;html=1;" parent="WIyWlLk6GJQsqaUBKTNV-1" vertex="1">
                    <mxGeometry x="687" y="1687" width="120" height="60" as="geometry"/>
                </mxCell>
                <mxCell id="1" style="edgeStyle=orthogonalEdgeStyle;rounded=0;orthogonalLoop=1;jettySize=auto;html=1;entryX=0.5;entryY=0;entryDx=0;entryDy=0;" edge="1" parent="WIyWlLk6GJQsqaUBKTNV-1" source="MtGOlrsBtDFDVX6YpHAY-3" target="0">
                    <mxGeometry relative="1" as="geometry"/>
                </mxCell>
                <mxCell id="MtGOlrsBtDFDVX6YpHAY-3" value="View Farm Info" style="rounded=1;whiteSpace=wrap;html=1;" parent="WIyWlLk6GJQsqaUBKTNV-1" vertex="1">
                    <mxGeometry x="522" y="1686" width="120" height="60" as="geometry"/>
                </mxCell>
                <mxCell id="5" style="edgeStyle=orthogonalEdgeStyle;rounded=0;orthogonalLoop=1;jettySize=auto;html=1;exitX=0.5;exitY=1;exitDx=0;exitDy=0;entryX=0.5;entryY=0;entryDx=0;entryDy=0;" edge="1" parent="WIyWlLk6GJQsqaUBKTNV-1" source="MtGOlrsBtDFDVX6YpHAY-4" target="4">
                    <mxGeometry relative="1" as="geometry"/>
                </mxCell>
                <mxCell id="MtGOlrsBtDFDVX6YpHAY-4" value="View Products" style="rounded=1;whiteSpace=wrap;html=1;" parent="WIyWlLk6GJQsqaUBKTNV-1" vertex="1">
                    <mxGeometry x="837" y="1686" width="120" height="60" as="geometry"/>
                </mxCell>
                <mxCell id="0" value="Editing Farm Info" style="rounded=1;whiteSpace=wrap;html=1;" vertex="1" parent="WIyWlLk6GJQsqaUBKTNV-1">
                    <mxGeometry x="522" y="1796" width="120" height="60" as="geometry"/>
                </mxCell>
                <mxCell id="2" value="Editing New Post" style="rounded=1;whiteSpace=wrap;html=1;" vertex="1" parent="WIyWlLk6GJQsqaUBKTNV-1">
                    <mxGeometry x="687" y="1795" width="120" height="60" as="geometry"/>
                </mxCell>
                <mxCell id="4" value="Editing Products" style="rounded=1;whiteSpace=wrap;html=1;" vertex="1" parent="WIyWlLk6GJQsqaUBKTNV-1">
                    <mxGeometry x="837" y="1792" width="120" height="60" as="geometry"/>
                </mxCell>
            </root>
        </mxGraphModel>
    </diagram>
</mxfile>